# xmcd
#
# Track frame offsets: 
#        150
#        13999
#        35879
#        52519
#        72861
#        91112
#        114454
#        131457
#        139771
#        142216
#        157770
#
# Disc length: 2409 seconds
#
# Revision: 0
# Processed by: cddbd v1.5.2PL0 Copyright (c) Steve Scherf et al.
# Submitted via: ExactAudioCopyFreeDBPlugin 1.0
#
DISCID=9109670b
DTITLE=Earth, Wind and Fire - Open Our Eyes
DYEAR=1974
DGENRE=Soul
TTITLE0=Mighty Mighty
TTITLE1=Devotion
TTITLE2=Fair But So Uncool
TTITLE3=Feelin' Blue
TTITLE4=Kalimba Story
TTITLE5=Drum Song
TTITLE6=Tee Nine Chee Bit
TTITLE7=Spasmodic Movements
TTITLE8=Rabbit Seed
TTITLE9=Caribou
TTITLE10=Open Our Eyes
EXTD=
EXTT0=
EXTT1=
EXTT2=
EXTT3=
EXTT4=
EXTT5=
EXTT6=
EXTT7=
EXTT8=
EXTT9=
EXTT10=
PLAYORDER=
